<svg version="1.1" id="Layer_1" xmlns="http://www.w3.org/2000/svg" xmlns:xlink="http://www.w3.org/1999/xlink" x="0px" y="0px"
	 width="100%" viewBox="0 0 606 230" xml:space="preserve">

<path fill="#080808" opacity="1.000000" stroke="none" 
	d="
M383.019928,143.930969 
	C390.495270,159.372986 397.944763,174.411285 405.092468,189.591675 
	C410.740417,201.586823 405.290802,214.257462 393.128265,218.179642 
	C384.885468,220.837769 375.553162,217.807785 370.940796,210.116577 
	C366.858185,203.308701 363.565399,196.020050 360.043518,188.884613 
	C354.448517,177.548782 348.946259,166.167114 343.426147,154.794449 
	C342.868866,153.646286 342.458282,152.426910 341.784973,150.758240 
	C347.084106,150.758240 351.889709,150.859253 356.689423,150.734390 
	C363.757935,150.550476 368.083588,146.865829 368.347382,141.017258 
	C368.619141,134.991562 364.296600,130.391068 357.175018,130.329559 
	C333.016632,130.120865 308.854706,130.172806 284.696533,130.390701 
	C282.927765,130.406662 281.178070,132.542770 279.419525,133.693192 
	C279.688568,134.238876 279.957581,134.784576 280.226624,135.330261 
	C282.017181,135.330261 283.807709,135.330261 285.598267,135.330261 
	C308.425507,135.330276 331.252747,135.326294 354.079987,135.338577 
	C355.740540,135.339478 357.778015,134.879471 358.973694,135.657745 
	C360.790344,136.840256 363.232697,138.967606 363.168396,140.605667 
	C363.102112,142.294678 360.555847,144.190781 358.701935,145.388397 
	C357.630280,146.080688 355.783112,145.600891 354.284973,145.600372 
	C329.125549,145.591583 303.966064,145.599014 278.806793,145.531189 
	C275.555939,145.522430 272.744324,145.732346 272.622559,150.637482 
	C278.335022,150.637482 284.043427,150.624161 289.751770,150.640320 
	C300.743408,150.671448 311.734924,150.731750 322.726562,150.755280 
	C329.005737,150.768707 327.447327,156.711578 330.258240,159.343643 
	C330.054565,159.724014 329.850861,160.104385 329.647156,160.484756 
	C320.560333,160.484756 311.473358,160.514725 302.386688,160.476685 
	C292.424561,160.434982 282.460693,160.424377 272.501770,160.206833 
	C268.569824,160.120941 266.341736,161.370041 264.570251,165.236343 
	C258.202698,179.133514 251.478775,192.874863 244.586334,206.521973 
	C237.698242,220.160553 222.212036,223.278183 211.796371,213.395935 
	C205.524857,207.445602 204.079529,197.944626 208.339676,189.014252 
	C214.424469,176.258987 220.666748,163.578857 226.843063,150.867264 
	C246.604538,110.195770 266.362823,69.522713 286.132263,28.855068 
	C289.365387,22.204197 293.643860,16.643253 301.434967,15.087877 
	C313.173584,12.744434 321.281891,16.938210 326.842896,28.336210 
	C341.563995,58.509144 356.227875,88.710014 370.907684,118.903084 
	C374.905457,127.125565 378.879150,135.359726 383.019928,143.930969 
M286.306885,51.857559 
	C271.704987,81.863556 257.079315,111.858009 242.510208,141.879929 
	C233.948120,159.523468 225.408234,177.178574 217.006378,194.898636 
	C214.618332,199.935242 216.739548,205.441849 221.555862,208.033463 
	C225.937531,210.391235 231.037888,208.990234 234.187317,204.431488 
	C235.219070,202.938034 236.017563,201.270172 236.813782,199.629211 
	C248.917282,174.684525 261.077484,149.766724 273.004944,124.738029 
	C274.636841,121.313629 276.596252,120.334518 280.230347,120.398888 
	C293.049408,120.625893 305.874939,120.489159 318.697998,120.490303 
	C321.106598,120.490517 323.515228,120.490326 326.584503,120.490326 
	C319.780212,106.352875 313.390289,93.076439 306.625763,79.021645 
	C302.692261,87.242554 299.009552,94.321228 295.922119,101.650681 
	C294.359222,105.360924 292.215942,106.730171 288.393250,106.218307 
	C286.660858,105.986328 284.871613,106.178940 282.430298,106.178940 
	C283.290314,104.115623 283.782745,102.752548 284.410583,101.454994 
	C294.323700,80.967010 304.364471,60.539261 314.044952,39.942120 
	C315.293304,37.285988 315.567505,33.504581 314.740326,30.702808 
	C313.608032,26.867498 310.204041,24.773388 305.850525,24.821922 
	C301.571747,24.869623 298.579224,26.837231 296.733490,30.604713 
	C293.371979,37.466255 290.056915,44.350567 286.306885,51.857559 
M318.049652,68.391251 
	C317.081390,66.536545 316.113129,64.681831 315.144836,62.827122 
	C314.667511,62.846916 314.190155,62.866711 313.712799,62.886505 
	C313.545105,65.227928 312.475403,67.997200 313.351196,69.843689 
	C320.959106,85.883438 328.897186,101.767044 336.811310,117.660110 
	C337.346893,118.735664 338.458679,120.275955 339.345398,120.305336 
	C346.063812,120.527870 352.792999,120.426979 360.150391,120.426979 
	C347.730042,94.779404 335.738373,70.017006 323.688141,45.133678 
	C320.692841,48.177761 320.851807,50.897083 322.589264,54.360825 
	C330.320770,69.774315 337.757751,85.335625 345.283936,100.851891 
	C346.031616,102.393326 346.661713,103.991791 347.437195,105.772301 
	C336.584961,106.643570 336.648193,106.613075 332.524719,98.062828 
	C327.852539,88.374847 323.052063,78.748749 318.049652,68.391251 
M384.362305,208.577164 
	C388.507324,210.053665 392.520477,208.996994 394.543549,205.556458 
	C396.197144,202.744339 397.467407,198.162659 396.307404,195.497086 
	C389.950409,180.889755 382.791687,166.631363 375.880096,152.194046 
	C372.369904,153.896515 371.746155,156.059784 373.683929,159.136673 
	C374.740173,160.813812 375.439758,162.715118 376.305725,164.512634 
	C381.282776,174.843414 386.278839,185.165085 391.228516,195.508957 
	C392.627899,198.433426 393.187439,201.456406 389.709778,203.276245 
	C386.079895,205.175766 383.737976,203.277649 382.184753,199.978790 
	C381.617828,198.774689 381.029327,197.580688 380.446533,196.384109 
	C375.078918,185.364090 369.604034,174.394302 364.409424,163.293350 
	C362.922729,160.116287 361.163055,159.133423 357.488922,160.744019 
	C364.646027,175.310669 371.649689,189.759399 378.905487,204.080383 
	C379.789124,205.824387 382.028717,206.881378 384.362305,208.577164 
z"/>
<path fill="#070707" opacity="1.000000" stroke="none" 
	d="
M61.930302,200.560699 
	C59.861942,211.045898 53.579060,217.993835 45.692955,218.947250 
	C35.553249,220.173141 27.105230,216.113953 23.528261,207.543716 
	C22.106623,204.137527 21.581017,200.130814 21.572592,196.395416 
	C21.452353,143.077744 21.517277,89.759689 21.465586,36.441795 
	C21.456594,27.168489 24.598047,19.701130 33.367775,15.783161 
	C40.763885,12.478870 48.176048,13.194426 54.352123,18.655174 
	C57.360306,21.314939 59.428368,25.037983 62.521397,29.058945 
	C90.127762,29.058945 118.935585,29.058477 147.743408,29.060266 
	C149.242783,29.060360 150.749054,28.991629 152.240143,29.108103 
	C155.492279,29.362137 157.715714,30.918705 157.510941,34.428841 
	C157.323151,37.647678 155.228119,38.945854 152.072464,38.958229 
	C128.272354,39.051582 104.472450,39.196564 80.672401,39.310364 
	C74.584038,39.339474 68.495399,39.314732 62.188889,39.314732 
	C62.188889,40.775528 62.188889,42.197166 62.188889,43.919121 
	C63.295662,44.024078 64.407150,44.221012 65.518715,44.221504 
	C93.343132,44.233833 121.167564,44.225643 148.991989,44.220036 
	C149.991669,44.219833 150.996826,44.275043 151.990112,44.192329 
	C158.152191,43.679157 162.630234,39.136734 162.407043,33.664188 
	C162.187698,28.285952 157.772888,24.096296 151.712570,23.975788 
	C143.384918,23.810198 135.051544,23.932436 126.720612,23.932224 
	C113.057884,23.931879 99.373344,23.469704 85.740944,24.112700 
	C78.054092,24.475266 72.902206,22.513582 70.672073,14.476529 
	C71.498932,14.355397 72.530022,14.072941 73.561234,14.072487 
	C99.719627,14.060977 125.878059,14.063293 152.036423,14.098950 
	C164.029144,14.115298 172.213760,22.180782 172.273590,33.949520 
	C172.334061,45.843975 163.939957,54.137974 151.779114,54.149426 
	C122.292831,54.177193 92.806541,54.184715 63.320263,54.213058 
	C63.026402,54.213341 62.732700,54.385368 62.203037,54.550964 
	C62.203037,62.720730 62.203037,70.964149 62.203037,79.634338 
	C67.936996,79.634338 73.556198,79.634079 79.175400,79.634384 
	C94.837547,79.635246 110.500153,79.563194 126.161697,79.661110 
	C138.120438,79.735878 146.998093,88.543495 146.893234,99.980110 
	C146.791718,111.050865 137.843185,119.587540 126.041183,119.621788 
	C101.548462,119.692856 77.055397,119.648537 52.562477,119.651619 
	C50.766842,119.651840 48.971210,119.651649 46.609173,119.651649 
	C46.609173,123.404770 46.609406,126.677780 46.609135,129.950790 
	C46.607315,151.942810 46.607197,173.934814 46.598450,195.926834 
	C46.597984,197.091431 46.964371,198.577713 46.395744,199.355621 
	C45.089603,201.142456 43.503075,203.590393 41.681229,203.937469 
	C38.721432,204.501373 36.857037,202.206589 36.821941,199.044418 
	C36.729614,190.725418 36.668774,182.405594 36.668156,174.086105 
	C36.666878,156.778748 36.795101,139.470490 36.604771,122.165520 
	C36.586769,120.529243 34.689865,118.913643 33.665283,117.288445 
	C33.160240,117.511879 32.655201,117.735313 32.150158,117.958748 
	C32.043232,119.179047 31.843805,120.399292 31.843018,121.619659 
	C31.826893,146.612442 31.832102,171.605240 31.839706,196.598022 
	C31.840061,197.763412 31.799248,198.942581 31.953377,200.091766 
	C32.599373,204.908249 36.619019,208.800629 41.209145,209.137100 
	C45.852505,209.477463 50.107521,206.293900 51.295864,201.294556 
	C51.827328,199.058716 52.060062,196.702271 52.067608,194.399384 
	C52.127674,176.071533 52.101040,157.743393 52.101006,139.415344 
	C52.101002,137.790421 52.101006,136.165497 52.101006,134.316467 
	C55.446472,134.316467 58.375710,134.316467 61.948143,134.316467 
	C61.948143,156.262589 61.948143,178.186539 61.930302,200.560699 
M109.498100,89.248550 
	C88.376198,89.248680 67.254280,89.234512 46.132442,89.272408 
	C44.156273,89.275955 42.136940,89.407463 40.213142,89.826309 
	C34.710903,91.024269 31.441511,95.303383 31.844038,100.501328 
	C32.234356,105.541595 36.387764,109.802277 41.795105,109.826210 
	C70.053116,109.951279 98.312134,109.938805 126.570351,109.843025 
	C131.755432,109.825447 135.777069,105.794304 136.195068,100.912628 
	C136.680832,95.239822 133.960922,90.882179 128.354202,90.105171 
	C122.475082,89.290413 116.455185,89.491463 109.498100,89.248550 
M31.815979,66.497925 
	C31.815979,71.458847 31.815979,76.419769 31.815979,80.846832 
	C38.672676,80.262009 45.190022,79.706131 52.046482,79.121323 
	C52.046482,64.010048 52.386395,48.911026 51.765083,33.851654 
	C51.637947,30.770100 48.560524,26.677757 45.705967,25.069128 
	C39.081570,21.336082 32.017197,26.687771 31.870922,35.100231 
	C31.694784,45.230080 31.820601,55.365181 31.815979,66.497925 
z"/>
<path fill="#080808" opacity="1.000000" stroke="none" 
	d="
M486.279053,213.806686 
	C468.497040,206.845825 454.396332,196.030273 447.282501,178.345505 
	C444.460358,171.329681 443.441254,163.273346 443.157593,155.632965 
	C442.818176,146.489914 451.326569,139.230743 461.285431,138.597565 
	C470.224213,138.029221 479.160706,144.616974 480.894287,153.052689 
	C484.315918,169.701935 491.116730,176.445297 507.943604,179.078293 
	C523.343140,181.487946 536.752380,178.085739 547.424988,165.650116 
	C549.202759,163.578674 554.087952,164.174149 557.537231,163.537262 
	C557.964417,164.052643 558.391602,164.568039 558.818787,165.083420 
	C556.059265,169.007187 553.798218,173.428970 550.457825,176.772476 
	C531.334961,195.913040 492.742218,193.503555 476.978699,172.052170 
	C474.298126,168.404343 473.076324,163.378311 472.186249,158.793747 
	C470.893982,152.138031 467.349121,148.227020 461.533569,148.568451 
	C455.776917,148.906433 452.583130,153.065033 452.756348,160.173721 
	C452.804688,162.157730 453.006500,164.167572 453.410980,166.108673 
	C456.757172,182.167496 466.848602,193.218246 480.882538,200.361542 
	C506.708893,213.507248 532.209656,212.334061 556.639832,196.327209 
	C585.860840,177.181381 586.107544,139.274475 557.161621,119.654854 
	C545.171082,111.527657 531.817810,107.374359 517.365234,106.938889 
	C510.423584,106.729736 506.316559,110.285431 506.152496,116.140457 
	C505.985443,122.102547 509.749146,125.388527 516.679871,126.350494 
	C523.549683,127.304008 530.550415,128.256866 537.084717,130.436310 
	C544.586487,132.938477 550.906311,137.727859 555.191467,144.674500 
	C556.182861,146.281616 556.876282,148.072586 557.928162,150.233704 
	C552.351318,150.906387 548.207825,151.242310 544.000671,146.674973 
	C536.535278,138.570526 526.276367,135.945587 515.462891,136.009460 
	C498.784363,136.107956 483.036835,132.625565 469.060944,123.345612 
	C449.480042,110.343887 438.400055,92.586494 441.090393,68.298363 
	C442.854523,52.372456 451.566010,40.198792 463.833405,30.427303 
	C495.206787,5.437108 546.193359,9.559854 572.223694,39.235241 
	C581.311218,49.595303 586.458923,61.616203 586.186279,75.619690 
	C585.997742,85.301323 578.662842,93.203133 569.226624,94.025673 
	C558.478149,94.962616 549.848267,88.737221 548.015381,78.724403 
	C545.214661,63.424206 534.384460,54.154408 518.536743,53.101803 
	C505.900330,52.262501 494.674408,54.978676 484.671204,63.357624 
	C482.156952,65.463631 477.208252,64.663254 473.378326,65.198555 
	C473.118744,64.805565 472.859131,64.412582 472.599548,64.019600 
	C473.755402,62.187172 474.713776,60.188263 476.097015,58.547523 
	C494.319000,36.932796 536.134094,38.338280 552.494141,61.315495 
	C554.867004,64.648102 556.215759,69.063568 556.898438,73.167587 
	C558.085632,80.303368 561.059265,84.266365 566.656738,84.351868 
	C573.125488,84.450661 577.309631,79.073555 576.494812,71.568718 
	C575.052856,58.287880 568.717590,47.605553 558.529541,39.273174 
	C533.296143,18.635735 493.045593,18.742445 467.950684,39.656017 
	C443.014771,60.437119 444.412964,93.912727 472.619659,113.859505 
	C480.893280,119.710297 489.398651,122.805481 496.151825,123.612488 
	C496.829346,117.518311 497.508636,111.407951 498.234772,104.876007 
	C485.934235,100.777870 473.961578,94.542915 469.972168,79.281319 
	C475.994141,76.538681 478.582184,77.385307 481.747345,82.308640 
	C486.969208,90.431145 495.105743,94.327240 504.144409,95.863182 
	C512.131287,97.220390 520.398438,96.879936 528.418030,98.101814 
	C551.848267,101.671707 570.842896,112.492561 582.461487,133.821411 
	C595.842468,158.385422 586.360901,189.629349 560.716492,205.802719 
	C537.432373,220.487534 512.565491,222.436935 486.279053,213.806686 
z"/>
<path fill="#080808" opacity="1.000000" stroke="none" 
	d="
M554.082886,180.073578 
	C571.680115,162.642761 565.496948,138.876587 542.572266,127.929817 
	C534.840637,124.237846 525.756714,123.238167 517.190369,121.503746 
	C513.839172,120.825218 510.634613,120.729164 510.807098,116.367004 
	C510.963776,112.404427 513.800781,111.695335 517.160461,111.799881 
	C535.558655,112.372406 551.954468,117.948608 564.040344,132.380478 
	C580.112976,151.573059 576.271912,177.165482 555.698181,191.645782 
	C531.363037,208.773499 499.483582,208.885971 475.280731,191.522202 
	C464.321869,183.659958 457.828156,172.952484 457.370667,159.083099 
	C457.270203,156.036270 458.083923,153.775528 461.517822,153.456650 
	C464.736542,153.157776 466.745209,154.765900 466.992767,157.891968 
	C468.546692,177.517685 481.442596,187.136703 498.421387,192.026764 
	C518.656677,197.854706 537.570312,194.699173 554.082886,180.073578 
z"/>
<path fill="#080808" opacity="1.000000" stroke="none" 
	d="
M469.599731,105.410896 
	C447.105011,85.245338 450.979156,50.985516 482.330566,36.016064 
	C506.749054,24.356901 530.720825,25.925669 553.172485,41.371407 
	C563.916321,48.762707 570.635498,59.061848 571.738037,72.443268 
	C572.031189,76.001114 571.733887,79.496536 567.025574,79.602097 
	C562.772278,79.697449 562.239746,76.619682 561.900269,73.140656 
	C560.547058,59.272545 551.953308,50.420826 540.212708,44.824203 
	C519.953491,35.166901 499.820679,36.024437 480.751373,48.327656 
	C460.790283,61.206223 459.430298,85.346405 478.268188,99.709244 
	C483.891144,103.996452 485.723999,107.565132 481.674408,114.250031 
	C477.797485,111.432594 473.825775,108.546272 469.599731,105.410896 
z"/>

<path fill="#070707" opacity="1.000000" stroke="none" 
	d="
M305.602661,46.620132 
	C280.976135,97.266594 256.538239,147.589661 232.086472,197.905975 
	C231.363007,199.394699 230.835876,201.371231 229.606873,202.124390 
	C228.003143,203.107193 225.205353,204.032471 223.986053,203.273056 
	C222.461716,202.323624 221.694336,199.708160 221.245560,197.669846 
	C221.015930,196.626862 222.159424,195.257812 222.739304,194.063797 
	C248.055374,141.936783 273.375366,89.811653 298.709167,37.693245 
	C299.652679,35.752159 300.306641,33.298405 301.875275,32.134430 
	C303.549896,30.891838 306.469604,30.016909 308.239105,30.657415 
	C309.490204,31.110273 310.664642,34.592239 310.227478,36.300869 
	C309.336517,39.783054 307.333923,42.980816 305.602661,46.620132 
z"/>
<path fill="#101010" opacity="1.000000" stroke="none" 
	d="
M36.816658,99.995468 
	C37.129219,95.805779 39.565617,94.472603 42.954338,94.469460 
	C70.452362,94.443947 97.950424,94.440880 125.448441,94.469032 
	C128.864532,94.472534 131.321533,95.820908 131.316864,99.708313 
	C131.312225,103.575974 128.991013,104.877487 125.470932,104.875641 
	C97.972870,104.861183 70.474792,104.859863 42.976734,104.877609 
	C39.792168,104.879669 37.426670,103.894188 36.816658,99.995468 
z"/>
<path fill="#0E0E0E" opacity="1.000000" stroke="none" 
	d="
M36.734653,55.952488 
	C36.713947,48.476379 36.620625,41.488964 36.711086,34.503933 
	C36.754078,31.184494 38.571049,29.084906 42.001892,29.209774 
	C45.292301,29.329529 46.545341,31.653696 46.557201,34.663784 
	C46.596508,44.641071 46.572044,54.618607 46.572044,65.048317 
	C43.392040,65.260361 40.490646,65.453835 36.737465,65.704109 
	C36.737465,62.272156 36.737465,59.357159 36.734653,55.952488 
z"/>
</svg>